HIERARCHY
ROOT Hips
{
  OFFSET 55.6705 85.5428 15.4067
  CHANNELS 6 Xposition Yposition Zposition Zrotation Xrotation Yrotation
  JOINT spine
  {
    OFFSET 0 6.3926 0.367606
    CHANNELS 3 Zrotation Xrotation Yrotation
    JOINT spine1
    {
      OFFSET 0 9.17611 0
      CHANNELS 3 Zrotation Xrotation Yrotation
      JOINT spine2
      {
        OFFSET 0 8.79238 0
        CHANNELS 3 Zrotation Xrotation Yrotation
        JOINT Neck
        {
          OFFSET 0 22.5737 1.07624
          CHANNELS 3 Zrotation Xrotation Yrotation
          JOINT Head
          {
            OFFSET 0 6.82011 0
            CHANNELS 3 Zrotation Xrotation Yrotation
            End Site
            {
              OFFSET 0 16.5085 -5.44427
            }
          }
        }
        JOINT RightShoulder
        {
          OFFSET -3.70221 9.49509 -0.515508
          CHANNELS 3 Zrotation Xrotation Yrotation
          JOINT RightArm
          {
            OFFSET 0 12.4537 0
            CHANNELS 3 Zrotation Xrotation Yrotation
            JOINT RightArmRoll
            {
              OFFSET 0 6.28686 0
              CHANNELS 3 Zrotation Xrotation Yrotation
              JOINT RightForeArm
              {
                OFFSET 0 18.3114 0
                CHANNELS 3 Zrotation Xrotation Yrotation
                JOINT RightForeArmRoll
                {
                  OFFSET 0 7.05483 0
                  CHANNELS 3 Zrotation Xrotation Yrotation
                  JOINT RightHand
                  {
                    OFFSET 0 14.1575 0
                    CHANNELS 3 Zrotation Xrotation Yrotation
                    End Site
                    {
                      OFFSET 0 0 0
                    }
                  }
                }
              }
            }
          }
        }
        JOINT LeftShoulder
        {
          OFFSET 3.70221 9.49509 -0.515508
          CHANNELS 3 Zrotation Xrotation Yrotation
          JOINT LeftArm
          {
            OFFSET 0 12.4537 0
            CHANNELS 3 Zrotation Xrotation Yrotation
            JOINT LeftArmRoll
            {
              OFFSET 0 6.28686 0
              CHANNELS 3 Zrotation Xrotation Yrotation
              JOINT LeftForeArm
              {
                OFFSET 0 18.3114 0
                CHANNELS 3 Zrotation Xrotation Yrotation
                JOINT LeftForeArmRoll
                {
                  OFFSET 0 7.05482 0
                  CHANNELS 3 Zrotation Xrotation Yrotation
                  JOINT LeftHand
                  {
                    OFFSET 0 14.1575 0
                    CHANNELS 3 Zrotation Xrotation Yrotation
                    End Site
                    {
                      OFFSET 0 0 0
                    }
                  }
                }
              }
            }
          }
        }
      }
    }
  }
  JOINT RightUpLeg
  {
    OFFSET -5.66615 -1.03903 -0.87161
    CHANNELS 3 Zrotation Xrotation Yrotation
    JOINT RightUpLegRoll
    {
      OFFSET 0 16.6005 0
      CHANNELS 3 Zrotation Xrotation Yrotation
      JOINT RightLeg
      {
        OFFSET 0 -20.5572 0
        CHANNELS 3 Zrotation Xrotation Yrotation
        JOINT RightLegRoll
        {
          OFFSET 0 20.6244 0
          CHANNELS 3 Zrotation Xrotation Yrotation
          JOINT RightFoot
          {
            OFFSET 0 17.1664 0
            CHANNELS 3 Zrotation Xrotation Yrotation
            JOINT RightToeBase
            {
              OFFSET 0 14.3502 0
              CHANNELS 3 Zrotation Xrotation Yrotation
              End Site
              {
                OFFSET 0.00608252 6.94971 -0.80106
              }
            }
          }
        }
      }
    }
  }
  JOINT LeftUpLeg
  {
    OFFSET 5.66615 -1.03903 -0.87161
    CHANNELS 3 Zrotation Xrotation Yrotation
    JOINT LeftUpLegRoll
    {
      OFFSET 0 16.6006 0
      CHANNELS 3 Zrotation Xrotation Yrotation
      JOINT LeftLeg
      {
        OFFSET 0 20.5571 0
        CHANNELS 3 Zrotation Xrotation Yrotation
        JOINT LeftLegRoll
        {
          OFFSET 0 20.8151 0
          CHANNELS 3 Zrotation Xrotation Yrotation
          JOINT LeftFoot
          {
            OFFSET 0 16.9757 0
            CHANNELS 3 Zrotation Xrotation Yrotation
            JOINT LeftToeBase
            {
              OFFSET 0 14.3502 0
              CHANNELS 3 Zrotation Xrotation Yrotation
              End Site
              {
                OFFSET -0.0272592 6.94971 -0.801061
              }
            }
          }
        }
      }
    }
  }
}
MOTION
Frames: 5
Frame Time: 0.00208333
56.7028 85.5677 15.8992 -1.97294 -4.70675 -27.0147 -0.279195 -0.632185 -0.0549566 -0.558988 2.72314 -0.0772689 -0.558694 4.36816 -0.0679509 -0.0784128 8.8447 5.8373 -4.42984 7.29468 5.76494 60.6551 0.582362 0.150016 109.566 17.2388 2.34843 -6.17145e-007 -7.06672e-007 -1.99077e-006 14.4969 5.15438 -0.9805 7.747e-007 5.70938e-008 -3 8.02892 -4.95146 0.697707 -56.1487 -1.03661 0.311833 -111.631 16.0935 -1.13578 2.00752e-023 -1.80821e-007 6.36111e-015 -9.27487 3.64116 0.871047 2.07692e-006 -3.79404e-006 3 -8.029 -4.95145 -0.69766 172.876 -5.09323 2.53081 180 7.01508e-015 178.764 177.164 9.24375 179.798 3.75384e-006 -3.03995e-006 0.230097 -21.7299 71.2138 22.6575 8.15628 25.5492 -3.06693 -171.7 -0.266499 -1.09605 4.54188e-006 -4.6773e-006 -1.07927 -0.586181 -7.08475 0.618817 -2.78954e-006 7.69505e-007 0.0995625 16.4226 67.727 -19.3126 -8.13649 25.2327 3.48774 
56.676 85.5649 15.9222 -1.98585 -4.71814 -27.0256 -0.276777 -0.628239 -0.0581334 -0.554145 2.73216 -0.0838526 -0.553768 4.37718 -0.0746199 -0.127694 8.82391 5.86319 -4.39527 7.30494 5.77824 60.6421 0.626664 0.178214 109.576 17.2465 2.35341 -6.17145e-007 -7.06672e-007 -1.99077e-006 14.4867 5.1705 -0.983531 7.747e-007 5.70938e-008 -3 8.02892 -4.95146 0.697707 -56.1664 -1.08471 0.345108 -111.637 16.1557 -1.11445 6.36111e-015 -1.80821e-007 -3.18055e-015 -9.27529 3.5619 0.863931 2.07692e-006 -3.79404e-006 3 -8.029 -4.95145 -0.69766 172.886 -5.10885 2.5259 180 7.01508e-015 178.764 177.167 9.23943 179.797 3.75384e-006 -3.03995e-006 0.230111 -21.7231 71.208 22.6503 8.1563 25.5495 -3.06618 -171.691 -0.285527 -1.10553 4.54188e-006 -4.6773e-006 -1.07913 -0.590123 -7.08253 0.618368 -2.78954e-006 7.69505e-007 0.0995625 16.4229 67.7276 -19.313 -8.13649 25.2327 3.48774 
56.6886 85.5657 15.92 -2.00009 -4.73117 -27.0376 -0.274235 -0.623727 -0.0614333 -0.54905 2.74236 -0.0906937 -0.548587 4.38738 -0.0815507 -0.180047 8.80048 5.89061 -4.35789 7.31682 5.79233 60.6279 0.672943 0.207732 109.586 17.2549 2.3599 -6.17145e-007 -7.06672e-007 -1.99077e-006 14.4753 5.18578 -0.986525 7.747e-007 5.70938e-008 -3 8.02892 -4.95146 0.697707 -56.1847 -1.13557 0.380251 -111.644 16.2208 -1.09331 9.54166e-015 -1.80821e-007 6.36111e-015 -9.27451 3.47841 0.856446 2.07692e-006 -3.79404e-006 3 -8.029 -4.95145 -0.69766 172.895 -5.12677 2.52073 180 7.01508e-015 178.764 177.172 9.23435 179.797 3.75384e-006 -3.03995e-006 0.230123 -21.7156 71.2016 22.6424 8.15632 25.5498 -3.06541 -171.68 -0.307242 -1.11608 4.54188e-006 -4.6773e-006 -1.07901 -0.594688 -7.07995 0.617815 -2.78954e-006 7.69505e-007 0.0995625 16.4236 67.728 -19.3134 -8.13649 25.2327 3.48774 
56.6614 85.576 15.8822 -2.01527 -4.74533 -27.0504 -0.271608 -0.61882 -0.0648196 -0.543777 2.75337 -0.0977149 -0.543226 4.39839 -0.0886648 -0.234538 8.7752 5.91909 -4.31853 7.32982 5.80699 60.613 0.720604 0.238176 109.597 17.264 2.36747 -6.17145e-007 -7.06672e-007 -1.99077e-006 14.4629 5.20046 -0.989495 7.747e-007 5.70938e-008 -3 8.02892 -4.95146 0.697707 -56.2034 -1.18835 0.416702 -111.652 16.2878 -1.07229 -1.59028e-015 -1.80821e-007 -3.18055e-015 -9.2729 3.39196 0.848703 2.07692e-006 -3.79404e-006 3 -8.029 -4.95145 -0.69766 172.905 -5.14628 2.51537 180 7.01508e-015 178.764 177.176 9.22876 179.796 3.75384e-006 -3.03995e-006 0.230132 -21.7077 71.1949 22.6341 8.15634 25.5501 -3.06461 -171.668 -0.330838 -1.12739 4.54188e-006 -4.6773e-006 -1.0789 -0.599689 -7.0771 0.617188 -2.78954e-006 7.69505e-007 0.0995625 16.4245 67.7285 -19.3137 -8.13649 25.2327 3.48774 
56.668 85.5712 15.8955 -2.03098 -4.76015 -27.0637 -0.26893 -0.613687 -0.0682551 -0.538402 2.76485 -0.104839 -0.537761 4.40987 -0.0958837 -0.290238 8.74886 5.94818 -4.27805 7.34346 5.82196 60.5977 0.769055 0.269148 109.608 17.2734 2.37564 -6.17145e-007 -7.06672e-007 -1.99077e-006 14.4499 5.21481 -0.99245 7.747e-007 5.70938e-008 -3 8.02892 -4.95146 0.697707 -56.2223 -1.24223 0.453901 -111.659 16.3559 -1.05135 -3.18055e-015 -1.80821e-007 -6.36111e-015 -9.27083 3.30381 0.840815 2.07692e-006 -3.79404e-006 3 -8.029 -4.95145 -0.69766 172.916 -5.16672 2.5099 180 7.01508e-015 178.764 177.181 9.22286 179.795 3.75384e-006 -3.03995e-006 0.23014 -21.6996 71.1879 22.6255 8.15636 25.5504 -3.06381 -171.657 -0.355509 -1.13914 4.54188e-006 -4.6773e-006 -1.07881 -0.604938 -7.0741 0.61652 -2.78954e-006 7.69505e-007 0.0995625 16.4255 67.729 -19.3141 -8.13649 25.2327 3.48774 
